{
  "accessors": [
    {
      "bufferView": 1,
      "componentType": 5126,
      "count": 304,
      "max": [
        1.8347400426864624,
        2.654059886932373,
        3.5823900699615479
      ],
      "min": [
        -2.3791499137878418,
        -2.5713698863983154,
        -4.8377499580383301
      ],
      "type": "VEC3"
    },
    {
      "bufferView": 1,
      "byteOffset": 3648,
      "componentType": 5126,
      "count": 304,
      "max": [
        0.9609375,
        0.99086624383926392,
        1
      ],
      "min": [
        -0.99862200021743774,
        -0.99425452947616577,
        -1
      ],
      "type": "VEC3"
    },
    {
      "bufferView": 2,
      "componentType": 5126,
      "count": 304,
      "max": [
        0.99191087484359741,
        1,
        0.8927459716796875,
        1
      ],
      "min": [
        -0.99126225709915161,
        -0.9989781379699707,
        -1,
        1
      ],
      "type": "VEC4"
    },
    {
      "bufferView": 0,
      "componentType": 5125,
      "count": 678,
      "max": [
        303
      ],
      "min": [
        0
      ],
      "type": "SCALAR"
    }
  ],
  "asset": {
    "extras": {
      "author": "Inuciian (https://sketchfab.com/Inuciian)",
      "license": "CC-BY-4.0 (http://creativecommons.org/licenses/by/4.0/)",
      "source": "https://sketchfab.com/models/00e4a92210b04f4a9707cc89ddac0e63",
      "title": "Book Stand"
    },
    "generator": "Sketchfab-3.18.7",
    "version": "2.0"
  },
  "bufferViews": [
    {
      "buffer": 0,
      "byteLength": 2712,
      "byteOffset": 0,
      "name": "floatBufferViews",
      "target": 34963
    },
    {
      "buffer": 0,
      "byteLength": 7296,
      "byteOffset": 2712,
      "byteStride": 12,
      "name": "floatBufferViews",
      "target": 34962
    },
    {
      "buffer": 0,
      "byteLength": 4864,
      "byteOffset": 10008,
      "byteStride": 16,
      "name": "floatBufferViews",
      "target": 34962
    }
  ],
  "buffers": [
    {
      "byteLength": 14872,
      "uri": "scene.bin"
    }
  ],
  "materials": [
    {
      "doubleSided": true,
      "emissiveFactor": [
        0,
        0,
        0
      ],
      "name": "wood_mat",
      "pbrMetallicRoughness": {
        "baseColorFactor": [
          0.1247718334,
          0.086500473300000005,
          0.076185382900000001,
          1
        ],
        "metallicFactor": 0,
        "roughnessFactor": 1
      }
    }
  ],
  "meshes": [
    {
      "name": "Cube.241_0",
      "primitives": [
        {
          "attributes": {
            "NORMAL": 1,
            "POSITION": 0,
            "TANGENT": 2
          },
          "indices": 3,
          "material": 0,
          "mode": 4
        }
      ]
    }
  ],
  "nodes": [
    {
      "children": [
        1
      ],
      "name": "RootNode (gltf orientation matrix)",
      "rotation": [
        -0.70710678118654746,
        -0,
        -0,
        0.70710678118654757
      ]
    },
    {
      "children": [
        2
      ],
      "name": "RootNode (model correction matrix)"
    },
    {
      "children": [
        3
      ],
      "name": "Root"
    },
    {
      "children": [
        4
      ],
      "matrix": [
        0.11578000000000002,
        0,
        0,
        0,
        0,
        0.11578000000000002,
        0,
        0,
        0,
        0,
        0.11578000000000002,
        0,
        2.2943700000000002,
        -2.1267300000000002,
        4.3716100000000004,
        1
      ],
      "name": "Cube.241"
    },
    {
      "mesh": 0,
      "name": "Cube.241_0"
    }
  ],
  "scene": 0,
  "scenes": [
    {
      "name": "OSG_Scene",
      "nodes": [
        0
      ]
    }
  ]
}

