{
  "accessors": [
    {
      "bufferView": 2,
      "componentType": 5126,
      "count": 104,
      "max": [
        77.061500549316406,
        44.454700469970703,
        124.939697265625
      ],
      "min": [
        -72.938499450683594,
        -35.545299530029297,
        119.939697265625
      ],
      "type": "VEC3"
    },
    {
      "bufferView": 2,
      "byteOffset": 1248,
      "componentType": 5126,
      "count": 104,
      "max": [
        1,
        1,
        0.99965411424636841
      ],
      "min": [
        -1,
        -1,
        -1
      ],
      "type": "VEC3"
    },
    {
      "bufferView": 1,
      "componentType": 5126,
      "count": 104,
      "max": [
        1,
        1
      ],
      "min": [
        0,
        0
      ],
      "type": "VEC2"
    },
    {
      "bufferView": 0,
      "componentType": 5125,
      "count": 276,
      "max": [
        103
      ],
      "min": [
        0
      ],
      "type": "SCALAR"
    },
    {
      "bufferView": 2,
      "byteOffset": 2496,
      "componentType": 5126,
      "count": 2364,
      "max": [
        34.381999969482422,
        32.487300872802734,
        169.25700378417969
      ],
      "min": [
        -30.618000030517578,
        -3.2723000049591064,
        125.42620086669922
      ],
      "type": "VEC3"
    },
    {
      "bufferView": 2,
      "byteOffset": 30864,
      "componentType": 5126,
      "count": 2364,
      "max": [
        1,
        1,
        1
      ],
      "min": [
        -1,
        -1,
        -1
      ],
      "type": "VEC3"
    },
    {
      "bufferView": 1,
      "byteOffset": 832,
      "componentType": 5126,
      "count": 2364,
      "max": [
        1,
        1
      ],
      "min": [
        -0.016699999570846558,
        0
      ],
      "type": "VEC2"
    },
    {
      "bufferView": 0,
      "byteOffset": 1104,
      "componentType": 5125,
      "count": 7032,
      "max": [
        2363
      ],
      "min": [
        0
      ],
      "type": "SCALAR"
    },
    {
      "bufferView": 2,
      "byteOffset": 59232,
      "componentType": 5126,
      "count": 144,
      "max": [
        75.996803283691406,
        43.975299835205078,
        120.43869781494141
      ],
      "min": [
        -72.181297302246094,
        -35.222900390625,
        -0.88830000162124634
      ],
      "type": "VEC3"
    },
    {
      "bufferView": 2,
      "byteOffset": 60960,
      "componentType": 5126,
      "count": 144,
      "max": [
        1,
        1,
        1
      ],
      "min": [
        -1,
        -1,
        -1
      ],
      "type": "VEC3"
    },
    {
      "bufferView": 1,
      "byteOffset": 19744,
      "componentType": 5126,
      "count": 144,
      "max": [
        1,
        1
      ],
      "min": [
        0,
        0
      ],
      "type": "VEC2"
    },
    {
      "bufferView": 0,
      "byteOffset": 29232,
      "componentType": 5125,
      "count": 216,
      "max": [
        143
      ],
      "min": [
        0
      ],
      "type": "SCALAR"
    },
    {
      "bufferView": 2,
      "byteOffset": 62688,
      "componentType": 5126,
      "count": 274,
      "max": [
        -43.209201812744141,
        14.755399703979492,
        129.9320068359375
      ],
      "min": [
        -58.116401672363281,
        4.2985000610351562,
        124.87640380859375
      ],
      "type": "VEC3"
    },
    {
      "bufferView": 2,
      "byteOffset": 65976,
      "componentType": 5126,
      "count": 274,
      "max": [
        0.94731998443603516,
        0.94069820642471313,
        0.99998593330383301
      ],
      "min": [
        -0.95363366603851318,
        -0.95842134952545166,
        -0.99998593330383301
      ],
      "type": "VEC3"
    },
    {
      "bufferView": 1,
      "byteOffset": 20896,
      "componentType": 5126,
      "count": 274,
      "max": [
        1,
        1
      ],
      "min": [
        0,
        0
      ],
      "type": "VEC2"
    },
    {
      "bufferView": 0,
      "byteOffset": 30096,
      "componentType": 5125,
      "count": 1116,
      "max": [
        273
      ],
      "min": [
        0
      ],
      "type": "SCALAR"
    }
  ],
  "asset": {
    "extras": {
      "author": "RominMosalmani (https://sketchfab.com/RominMosalmani)",
      "license": "CC-BY-4.0 (http://creativecommons.org/licenses/by/4.0/)",
      "source": "https://sketchfab.com/3d-models/workstation-be8a367fd0944fcd90068de6ca25722e",
      "title": "Workstation"
    },
    "generator": "Sketchfab-8.33.0",
    "version": "2.0"
  },
  "bufferViews": [
    {
      "buffer": 0,
      "byteLength": 34560,
      "byteOffset": 0,
      "name": "floatBufferViews",
      "target": 34963
    },
    {
      "buffer": 0,
      "byteLength": 23088,
      "byteOffset": 34560,
      "byteStride": 8,
      "name": "floatBufferViews",
      "target": 34962
    },
    {
      "buffer": 0,
      "byteLength": 69264,
      "byteOffset": 57648,
      "byteStride": 12,
      "name": "floatBufferViews",
      "target": 34962
    }
  ],
  "buffers": [
    {
      "byteLength": 126912,
      "uri": "scene.bin"
    }
  ],
  "materials": [
    {
      "doubleSided": true,
      "emissiveFactor": [
        0,
        0,
        0
      ],
      "name": "wire_007010015",
      "pbrMetallicRoughness": {
        "baseColorFactor": [
          0.0275,
          0.039199999999999999,
          0.058799999999999998,
          1
        ],
        "metallicFactor": 0,
        "roughnessFactor": 0.91675550194980948
      }
    },
    {
      "doubleSided": true,
      "emissiveFactor": [
        0,
        0,
        0
      ],
      "name": "wire_086086086",
      "pbrMetallicRoughness": {
        "baseColorFactor": [
          0.33729999999999999,
          0.33729999999999999,
          0.33729999999999999,
          1
        ],
        "metallicFactor": 0,
        "roughnessFactor": 0.91675550194980948
      }
    },
    {
      "doubleSided": true,
      "emissiveFactor": [
        0,
        0,
        0
      ],
      "name": "wire_135059008",
      "pbrMetallicRoughness": {
        "baseColorFactor": [
          0.52939999999999998,
          0.23139999999999999,
          0.031399999999999997,
          1
        ],
        "metallicFactor": 0,
        "roughnessFactor": 0.91675550194980948
      }
    },
    {
      "doubleSided": true,
      "emissiveFactor": [
        0,
        0,
        0
      ],
      "name": "wire_227153153",
      "pbrMetallicRoughness": {
        "baseColorFactor": [
          0.89019999999999999,
          0.59999999999999998,
          0.59999999999999998,
          1
        ],
        "metallicFactor": 0,
        "roughnessFactor": 0.91675550194980948
      }
    }
  ],
  "meshes": [
    {
      "primitives": [
        {
          "attributes": {
            "NORMAL": 1,
            "POSITION": 0,
            "TEXCOORD_0": 2
          },
          "indices": 3,
          "material": 2,
          "mode": 4
        }
      ]
    },
    {
      "primitives": [
        {
          "attributes": {
            "NORMAL": 5,
            "POSITION": 4,
            "TEXCOORD_0": 6
          },
          "indices": 7,
          "material": 0,
          "mode": 4
        }
      ]
    },
    {
      "primitives": [
        {
          "attributes": {
            "NORMAL": 9,
            "POSITION": 8,
            "TEXCOORD_0": 10
          },
          "indices": 11,
          "material": 1,
          "mode": 4
        }
      ]
    },
    {
      "primitives": [
        {
          "attributes": {
            "NORMAL": 13,
            "POSITION": 12,
            "TEXCOORD_0": 14
          },
          "indices": 15,
          "material": 3,
          "mode": 4
        }
      ]
    }
  ],
  "nodes": [
    {
      "children": [
        1
      ],
      "name": "RootNode (gltf orientation matrix)",
      "rotation": [
        -0.70710678118654746,
        -0,
        -0,
        0.70710678118654757
      ]
    },
    {
      "children": [
        2
      ],
      "name": "RootNode (model correction matrix)"
    },
    {
      "children": [
        3,
        4,
        5,
        6
      ],
      "name": "Desk and computer.obj.cleaner.materialmerger.gles"
    },
    {
      "mesh": 0,
      "name": ""
    },
    {
      "mesh": 1,
      "name": ""
    },
    {
      "mesh": 2,
      "name": ""
    },
    {
      "mesh": 3,
      "name": ""
    }
  ],
  "scene": 0,
  "scenes": [
    {
      "name": "OSG_Scene",
      "nodes": [
        0
      ]
    }
  ]
}

