{
    "asset" : {
        "generator" : "Khronos glTF Blender I/O v1.1.46",
        "version" : "2.0"
    },
    "scene" : 0,
    "scenes" : [
        {
            "name" : "Digital_Clock",
            "nodes" : [
                1
            ]
        }
    ],
    "nodes" : [
        {
            "mesh" : 0,
            "name" : "clock"
        },
        {
            "children" : [
                0
            ],
            "name" : "alarmclock"
        }
    ],
    "materials" : [
        {
            "doubleSided" : true,
            "emissiveFactor" : [
                0,
                0,
                0
            ],
            "name" : "ALBLACK",
            "pbrMetallicRoughness" : {
                "baseColorFactor" : [
                    0.38823530077934265,
                    0.38823530077934265,
                    0.38823530077934265,
                    1
                ],
                "metallicFactor" : 0,
                "roughnessFactor" : 0.5
            }
        },
        {
            "doubleSided" : true,
            "emissiveFactor" : [
                0,
                0,
                0
            ],
            "name" : "ALBUTTON",
            "pbrMetallicRoughness" : {
                "baseColorFactor" : [
                    1,
                    1,
                    1,
                    1
                ],
                "metallicFactor" : 0,
                "roughnessFactor" : 0.5
            }
        },
        {
            "doubleSided" : true,
            "emissiveFactor" : [
                0,
                0,
                0
            ],
            "name" : "ALSHINY",
            "pbrMetallicRoughness" : {
                "baseColorFactor" : [
                    0.0313725508749485,
                    0.0313725508749485,
                    0.0313725508749485,
                    1
                ],
                "metallicFactor" : 0,
                "roughnessFactor" : 0.5
            }
        },
        {
            "doubleSided" : true,
            "emissiveFactor" : [
                0,
                0,
                0
            ],
            "name" : "1DIGI",
            "pbrMetallicRoughness" : {
                "baseColorFactor" : [
                    1,
                    1,
                    1,
                    1
                ],
                "metallicFactor" : 0,
                "roughnessFactor" : 0.5
            }
        }
    ],
    "meshes" : [
        {
            "name" : "clock",
            "primitives" : [
                {
                    "attributes" : {
                        "POSITION" : 0,
                        "NORMAL" : 1,
                        "TEXCOORD_0" : 2
                    },
                    "indices" : 3,
                    "material" : 0
                },
                {
                    "attributes" : {
                        "POSITION" : 4,
                        "NORMAL" : 5,
                        "TEXCOORD_0" : 6
                    },
                    "indices" : 7,
                    "material" : 1
                },
                {
                    "attributes" : {
                        "POSITION" : 8,
                        "NORMAL" : 9,
                        "TEXCOORD_0" : 10
                    },
                    "indices" : 11,
                    "material" : 2
                },
                {
                    "attributes" : {
                        "POSITION" : 12,
                        "NORMAL" : 13,
                        "TEXCOORD_0" : 14
                    },
                    "indices" : 15,
                    "material" : 3
                }
            ]
        }
    ],
    "accessors" : [
        {
            "bufferView" : 0,
            "componentType" : 5126,
            "count" : 3940,
            "max" : [
                1.0050219297409058,
                0.40620842576026917,
                0.6167702674865723
            ],
            "min" : [
                -1.005020022392273,
                -0.43130913376808167,
                -0.6167698502540588
            ],
            "type" : "VEC3"
        },
        {
            "bufferView" : 1,
            "componentType" : 5126,
            "count" : 3940,
            "type" : "VEC3"
        },
        {
            "bufferView" : 2,
            "componentType" : 5126,
            "count" : 3940,
            "type" : "VEC2"
        },
        {
            "bufferView" : 3,
            "componentType" : 5123,
            "count" : 14496,
            "type" : "SCALAR"
        },
        {
            "bufferView" : 4,
            "componentType" : 5126,
            "count" : 2160,
            "max" : [
                0.6871557235717773,
                0.43130919337272644,
                0.1975148320198059
            ],
            "min" : [
                -0.18531233072280884,
                0.3875131607055664,
                -0.23303544521331787
            ],
            "type" : "VEC3"
        },
        {
            "bufferView" : 5,
            "componentType" : 5126,
            "count" : 2160,
            "type" : "VEC3"
        },
        {
            "bufferView" : 6,
            "componentType" : 5126,
            "count" : 2160,
            "type" : "VEC2"
        },
        {
            "bufferView" : 7,
            "componentType" : 5123,
            "count" : 10740,
            "type" : "SCALAR"
        },
        {
            "bufferView" : 8,
            "componentType" : 5126,
            "count" : 432,
            "max" : [
                0.9286099672317505,
                0.3390558063983917,
                0.6075150370597839
            ],
            "min" : [
                -0.9284588098526001,
                -0.2538641393184662,
                0.5795621871948242
            ],
            "type" : "VEC3"
        },
        {
            "bufferView" : 9,
            "componentType" : 5126,
            "count" : 432,
            "type" : "VEC3"
        },
        {
            "bufferView" : 10,
            "componentType" : 5126,
            "count" : 432,
            "type" : "VEC2"
        },
        {
            "bufferView" : 11,
            "componentType" : 5123,
            "count" : 1248,
            "type" : "SCALAR"
        },
        {
            "bufferView" : 12,
            "componentType" : 5126,
            "count" : 48,
            "max" : [
                0.6432514190673828,
                0.300800621509552,
                0.6070072650909424
            ],
            "min" : [
                -0.6293646693229675,
                -0.21750178933143616,
                0.5607290267944336
            ],
            "type" : "VEC3"
        },
        {
            "bufferView" : 13,
            "componentType" : 5126,
            "count" : 48,
            "type" : "VEC3"
        },
        {
            "bufferView" : 14,
            "componentType" : 5126,
            "count" : 48,
            "type" : "VEC2"
        },
        {
            "bufferView" : 15,
            "componentType" : 5123,
            "count" : 72,
            "type" : "SCALAR"
        }
    ],
    "bufferViews" : [
        {
            "buffer" : 0,
            "byteLength" : 47280,
            "byteOffset" : 0
        },
        {
            "buffer" : 0,
            "byteLength" : 47280,
            "byteOffset" : 47280
        },
        {
            "buffer" : 0,
            "byteLength" : 31520,
            "byteOffset" : 94560
        },
        {
            "buffer" : 0,
            "byteLength" : 28992,
            "byteOffset" : 126080
        },
        {
            "buffer" : 0,
            "byteLength" : 25920,
            "byteOffset" : 155072
        },
        {
            "buffer" : 0,
            "byteLength" : 25920,
            "byteOffset" : 180992
        },
        {
            "buffer" : 0,
            "byteLength" : 17280,
            "byteOffset" : 206912
        },
        {
            "buffer" : 0,
            "byteLength" : 21480,
            "byteOffset" : 224192
        },
        {
            "buffer" : 0,
            "byteLength" : 5184,
            "byteOffset" : 245672
        },
        {
            "buffer" : 0,
            "byteLength" : 5184,
            "byteOffset" : 250856
        },
        {
            "buffer" : 0,
            "byteLength" : 3456,
            "byteOffset" : 256040
        },
        {
            "buffer" : 0,
            "byteLength" : 2496,
            "byteOffset" : 259496
        },
        {
            "buffer" : 0,
            "byteLength" : 576,
            "byteOffset" : 261992
        },
        {
            "buffer" : 0,
            "byteLength" : 576,
            "byteOffset" : 262568
        },
        {
            "buffer" : 0,
            "byteLength" : 384,
            "byteOffset" : 263144
        },
        {
            "buffer" : 0,
            "byteLength" : 144,
            "byteOffset" : 263528
        }
    ],
    "buffers" : [
        {
            "byteLength" : 263672,
            "uri" : "data:application/octet-stream;base64,"
        }
    ]
}
