{
    "asset" : {
        "generator" : "Khronos glTF Blender I/O v1.1.46",
        "version" : "2.0"
    },
    "scene" : 0,
    "scenes" : [
        {
            "name" : "door",
            "nodes" : [
                7
            ]
        }
    ],
    "nodes" : [
        {
            "name" : "Armature",
            "rotation" : [
                -0.7071068286895752,
                0,
                0,
                0.7071067094802856
            ],
            "scale" : [
                0.04999999701976776,
                0.04999999329447746,
                0.04999999329447746
            ]
        },
        {
            "mesh" : 0,
            "name" : "door",
            "rotation" : [
                -0.7071068286895752,
                0,
                0,
                0.7071068286895752
            ],
            "scale" : [
                4.343794822692871,
                0.16561993956565857,
                4.343794345855713
            ],
            "translation" : [
                -1.8335602283477783,
                -1.4874881505966187,
                0.01163625717163086
            ]
        },
        {
            "mesh" : 1,
            "name" : "Door_lock",
            "rotation" : [
                -0.7071068286895752,
                0,
                0,
                0.7071068286895752
            ],
            "scale" : [
                4.343794822692871,
                0.16561993956565857,
                4.343794345855713
            ],
            "translation" : [
                1.8663792610168457,
                1.9086638689041138,
                0.008886899799108505
            ]
        },
        {
            "mesh" : 2,
            "name" : "Door_Plane",
            "rotation" : [
                0.7071068286895752,
                0,
                0,
                0.7071068286895752
            ],
            "scale" : [
                0.9995071291923523,
                0.15304937958717346,
                2.224457025527954
            ],
            "translation" : [
                0.05658065155148506,
                1.8570854663848877,
                -0.018179142847657204
            ]
        },
        {
            "mesh" : 3,
            "name" : "frame",
            "rotation" : [
                -0.7071068286895752,
                0,
                0,
                0.7071068286895752
            ],
            "scale" : [
                4.343794822692871,
                0.16561993956565857,
                4.343794345855713
            ],
            "translation" : [
                0.05658065527677536,
                -2.5689313411712646,
                -0.005157108418643475
            ]
        },
        {
            "mesh" : 4,
            "name" : "handle",
            "rotation" : [
                -0.7071068286895752,
                0,
                0,
                0.7071068286895752
            ],
            "scale" : [
                4.343794822692871,
                0.16561993956565857,
                4.343794345855713
            ],
            "translation" : [
                1.6836271286010742,
                1.9999443292617798,
                0.00455802446231246
            ]
        },
        {
            "mesh" : 5,
            "name" : "Key_way",
            "rotation" : [
                -0.7071068286895752,
                0,
                0,
                0.7071068286895752
            ],
            "scale" : [
                4.343794822692871,
                0.16561993956565857,
                4.343794345855713
            ],
            "translation" : [
                -1.8335602283477783,
                -1.4874881505966187,
                0.01163625717163086
            ]
        },
        {
            "children" : [
                0,
                1,
                2,
                3,
                4,
                5,
                6
            ],
            "name" : "Door_Animation"
        }
    ],
    "animations" : [
        {
            "channels" : [
                {
                    "sampler" : 0,
                    "target" : {
                        "node" : 0,
                        "path" : "scale"
                    }
                },
                {
                    "sampler" : 1,
                    "target" : {
                        "node" : 0,
                        "path" : "translation"
                    }
                },
                {
                    "sampler" : 2,
                    "target" : {
                        "node" : 0,
                        "path" : "rotation"
                    }
                }
            ],
            "name" : "ArmatureAction",
            "samplers" : [
                {
                    "input" : 24,
                    "interpolation" : "LINEAR",
                    "output" : 25
                },
                {
                    "input" : 24,
                    "interpolation" : "LINEAR",
                    "output" : 26
                },
                {
                    "input" : 24,
                    "interpolation" : "LINEAR",
                    "output" : 27
                }
            ]
        }
    ],
    "materials" : [
        {
            "doubleSided" : true,
            "emissiveFactor" : [
                0,
                0,
                0
            ],
            "name" : "door",
            "pbrMetallicRoughness" : {
                "baseColorFactor" : [
                    0.40196898579597473,
                    0.2813328802585602,
                    0.1417500525712967,
                    1
                ],
                "metallicFactor" : 0,
                "roughnessFactor" : 0.5
            }
        },
        {
            "doubleSided" : true,
            "emissiveFactor" : [
                0,
                0,
                0
            ],
            "name" : "door_img",
            "pbrMetallicRoughness" : {
                "baseColorFactor" : [
                    0.8399999737739563,
                    0.8399999737739563,
                    0.8399999737739563,
                    1
                ],
                "metallicFactor" : 0,
                "roughnessFactor" : 0.5
            }
        }
    ],
    "meshes" : [
        {
            "name" : "door",
            "primitives" : [
                {
                    "attributes" : {
                        "POSITION" : 0,
                        "NORMAL" : 1,
                        "TEXCOORD_0" : 2
                    },
                    "indices" : 3,
                    "material" : 0
                }
            ]
        },
        {
            "name" : "Door_lock",
            "primitives" : [
                {
                    "attributes" : {
                        "POSITION" : 4,
                        "NORMAL" : 5,
                        "TEXCOORD_0" : 6
                    },
                    "indices" : 7,
                    "material" : 0
                }
            ]
        },
        {
            "name" : "Door_Plane",
            "primitives" : [
                {
                    "attributes" : {
                        "POSITION" : 8,
                        "NORMAL" : 9,
                        "TEXCOORD_0" : 10
                    },
                    "indices" : 11,
                    "material" : 1
                }
            ]
        },
        {
            "name" : "frame",
            "primitives" : [
                {
                    "attributes" : {
                        "POSITION" : 12,
                        "NORMAL" : 13,
                        "TEXCOORD_0" : 14
                    },
                    "indices" : 15,
                    "material" : 0
                }
            ]
        },
        {
            "name" : "handle",
            "primitives" : [
                {
                    "attributes" : {
                        "POSITION" : 16,
                        "NORMAL" : 17,
                        "TEXCOORD_0" : 18
                    },
                    "indices" : 19,
                    "material" : 0
                }
            ]
        },
        {
            "name" : "Key_way",
            "primitives" : [
                {
                    "attributes" : {
                        "POSITION" : 20,
                        "NORMAL" : 21,
                        "TEXCOORD_0" : 22
                    },
                    "indices" : 23,
                    "material" : 0
                }
            ]
        }
    ],
    "accessors" : [
        {
            "bufferView" : 0,
            "componentType" : 5126,
            "count" : 1248,
            "max" : [
                0.8601358532905579,
                0.035857100039720535,
                1.7510371208190918
            ],
            "min" : [
                -0.007731281686574221,
                -0.007732009049504995,
                -0.248962864279747
            ],
            "type" : "VEC3"
        },
        {
            "bufferView" : 1,
            "componentType" : 5126,
            "count" : 1248,
            "type" : "VEC3"
        },
        {
            "bufferView" : 2,
            "componentType" : 5126,
            "count" : 1248,
            "type" : "VEC2"
        },
        {
            "bufferView" : 3,
            "componentType" : 5123,
            "count" : 4716,
            "type" : "SCALAR"
        },
        {
            "bufferView" : 4,
            "componentType" : 5126,
            "count" : 44,
            "max" : [
                0.007430806290358305,
                0.006355106830596924,
                0.01207923237234354
            ],
            "min" : [
                8.034779739318765e-07,
                -0.00423689279705286,
                -0.01188476663082838
            ],
            "type" : "VEC3"
        },
        {
            "bufferView" : 5,
            "componentType" : 5126,
            "count" : 44,
            "type" : "VEC3"
        },
        {
            "bufferView" : 6,
            "componentType" : 5126,
            "count" : 44,
            "type" : "VEC2"
        },
        {
            "bufferView" : 7,
            "componentType" : 5123,
            "count" : 66,
            "type" : "SCALAR"
        },
        {
            "bufferView" : 8,
            "componentType" : 5126,
            "count" : 4,
            "max" : [
                2.000002861022949,
                4.805675413166455e-09,
                2.0000011920928955
            ],
            "min" : [
                -1.9999969005584717,
                4.805673636809615e-09,
                -1.9999983310699463
            ],
            "type" : "VEC3"
        },
        {
            "bufferView" : 9,
            "componentType" : 5126,
            "count" : 4,
            "type" : "VEC3"
        },
        {
            "bufferView" : 10,
            "componentType" : 5126,
            "count" : 4,
            "type" : "VEC2"
        },
        {
            "bufferView" : 11,
            "componentType" : 5123,
            "count" : 6,
            "type" : "SCALAR"
        },
        {
            "bufferView" : 12,
            "componentType" : 5126,
            "count" : 1318,
            "max" : [
                0.4850006401538849,
                0.09004399180412292,
                2.0599992275238037
            ],
            "min" : [
                -0.48499932885169983,
                -0.10913299024105072,
                -6.206546458997764e-07
            ],
            "type" : "VEC3"
        },
        {
            "bufferView" : 13,
            "componentType" : 5126,
            "count" : 1318,
            "type" : "VEC3"
        },
        {
            "bufferView" : 14,
            "componentType" : 5126,
            "count" : 1318,
            "type" : "VEC2"
        },
        {
            "bufferView" : 15,
            "componentType" : 5123,
            "count" : 4656,
            "type" : "SCALAR"
        },
        {
            "bufferView" : 16,
            "componentType" : 5126,
            "count" : 1770,
            "max" : [
                0.010688764043152332,
                0.057853955775499344,
                0.012639329768717289
            ],
            "min" : [
                -0.11964523792266846,
                -0.11161503940820694,
                -0.012638675048947334
            ],
            "type" : "VEC3"
        },
        {
            "bufferView" : 17,
            "componentType" : 5126,
            "count" : 1770,
            "type" : "VEC3"
        },
        {
            "bufferView" : 18,
            "componentType" : 5126,
            "count" : 1770,
            "type" : "VEC2"
        },
        {
            "bufferView" : 19,
            "componentType" : 5123,
            "count" : 8256,
            "type" : "SCALAR"
        },
        {
            "bufferView" : 20,
            "componentType" : 5126,
            "count" : 4330,
            "max" : [
                0.8357546925544739,
                0.04641209542751312,
                0.8289051651954651
            ],
            "min" : [
                0.783653736114502,
                -0.01469690352678299,
                0.6931091547012329
            ],
            "type" : "VEC3"
        },
        {
            "bufferView" : 21,
            "componentType" : 5126,
            "count" : 4330,
            "type" : "VEC3"
        },
        {
            "bufferView" : 22,
            "componentType" : 5126,
            "count" : 4330,
            "type" : "VEC2"
        },
        {
            "bufferView" : 23,
            "componentType" : 5123,
            "count" : 19968,
            "type" : "SCALAR"
        },
        {
            "bufferView" : 24,
            "componentType" : 5126,
            "count" : 51,
            "max" : [
                1.7241379310344827
            ],
            "min" : [
                0
            ],
            "type" : "SCALAR"
        },
        {
            "bufferView" : 25,
            "componentType" : 5126,
            "count" : 51,
            "type" : "VEC3"
        },
        {
            "bufferView" : 26,
            "componentType" : 5126,
            "count" : 51,
            "type" : "VEC3"
        },
        {
            "bufferView" : 27,
            "componentType" : 5126,
            "count" : 51,
            "type" : "VEC4"
        }
    ],
    "bufferViews" : [
        {
            "buffer" : 0,
            "byteLength" : 14976,
            "byteOffset" : 0
        },
        {
            "buffer" : 0,
            "byteLength" : 14976,
            "byteOffset" : 14976
        },
        {
            "buffer" : 0,
            "byteLength" : 9984,
            "byteOffset" : 29952
        },
        {
            "buffer" : 0,
            "byteLength" : 9432,
            "byteOffset" : 39936
        },
        {
            "buffer" : 0,
            "byteLength" : 528,
            "byteOffset" : 49368
        },
        {
            "buffer" : 0,
            "byteLength" : 528,
            "byteOffset" : 49896
        },
        {
            "buffer" : 0,
            "byteLength" : 352,
            "byteOffset" : 50424
        },
        {
            "buffer" : 0,
            "byteLength" : 132,
            "byteOffset" : 50776
        },
        {
            "buffer" : 0,
            "byteLength" : 48,
            "byteOffset" : 50908
        },
        {
            "buffer" : 0,
            "byteLength" : 48,
            "byteOffset" : 50956
        },
        {
            "buffer" : 0,
            "byteLength" : 32,
            "byteOffset" : 51004
        },
        {
            "buffer" : 0,
            "byteLength" : 12,
            "byteOffset" : 51036
        },
        {
            "buffer" : 0,
            "byteLength" : 15816,
            "byteOffset" : 51048
        },
        {
            "buffer" : 0,
            "byteLength" : 15816,
            "byteOffset" : 66864
        },
        {
            "buffer" : 0,
            "byteLength" : 10544,
            "byteOffset" : 82680
        },
        {
            "buffer" : 0,
            "byteLength" : 9312,
            "byteOffset" : 93224
        },
        {
            "buffer" : 0,
            "byteLength" : 21240,
            "byteOffset" : 102536
        },
        {
            "buffer" : 0,
            "byteLength" : 21240,
            "byteOffset" : 123776
        },
        {
            "buffer" : 0,
            "byteLength" : 14160,
            "byteOffset" : 145016
        },
        {
            "buffer" : 0,
            "byteLength" : 16512,
            "byteOffset" : 159176
        },
        {
            "buffer" : 0,
            "byteLength" : 51960,
            "byteOffset" : 175688
        },
        {
            "buffer" : 0,
            "byteLength" : 51960,
            "byteOffset" : 227648
        },
        {
            "buffer" : 0,
            "byteLength" : 34640,
            "byteOffset" : 279608
        },
        {
            "buffer" : 0,
            "byteLength" : 39936,
            "byteOffset" : 314248
        },
        {
            "buffer" : 0,
            "byteLength" : 204,
            "byteOffset" : 354184
        },
        {
            "buffer" : 0,
            "byteLength" : 612,
            "byteOffset" : 354388
        },
        {
            "buffer" : 0,
            "byteLength" : 612,
            "byteOffset" : 355000
        },
        {
            "buffer" : 0,
            "byteLength" : 816,
            "byteOffset" : 355612
        }
    ],
    "buffers" : [
        {
            "byteLength" : 356428,
            "uri" : "data:application/octet-stream;base64,"
        }
    ]
}
